# xmcd
#
# Track frame offsets: 
#        150
#        14395
#        39166
#        50786
#        72956
#        87551
#        107401
#        137646
#        168906
#
# Disc length: 2455 seconds
#
# Revision: 0
# Processed by: cddbd v1.5.2PL0 Copyright (c) Steve Scherf et al.
# Submitted via: ExactAudioCopy v0.95b3
#
DISCID=71099509
DTITLE=Rich Hopkins and Barry "The Fish" Melton - Duel In The Desert
DYEAR=2007
DGENRE=Blues
TTITLE0=Alabama Bound
TTITLE1=I've Seen The World From Your Eyes
TTITLE2=Pleace Forgive Me
TTITLE3=Without You
TTITLE4=The Highway Is A Devil
TTITLE5=Duel In The Desert
TTITLE6=Pretty Polly
TTITLE7=On Death
TTITLE8=Thirty Days
EXTD=
EXTT0=
EXTT1=
EXTT2=
EXTT3=
EXTT4=
EXTT5=
EXTT6=
EXTT7=
EXTT8=
PLAYORDER=
